<svg width="389.89345483110367" height="48.419337173677924" viewBox="0 0 389.89345483110367 48.419337173677924" class="css-1j8o68f"><defs id="SvgjsDefs2636"></defs><g id="SvgjsG2637" featurekey="nameLeftFeature-0" transform="matrix(0.914952107963603,0,0,0.914952107963603,-2.086090343696862,0.8990387063415657)" fill="#ffffff"><path d="M2.28 11.399999999999999 l6.56 -0.000078124 l0 15.28 c0 1.4933 0.06668 2.7533 0.2 3.78 s0.36 1.8534 0.68 2.48 s0.76 1.0734 1.32 1.34 s1.2667 0.4 2.12 0.4 c0.88 0 1.6 -0.13332 2.16 -0.4 s1 -0.70668 1.32 -1.32 s0.54668 -1.4333 0.68 -2.46 s0.2 -2.3 0.2 -3.82 l0 -15.28 l6.56 0 l0 16.48 c0 1.9733 -0.16668 3.7333 -0.5 5.28 s-0.91332 2.86 -1.74 3.94 s-1.94 1.9067 -3.34 2.48 s-3.18 0.86 -5.34 0.86 c-2.1333 0 -3.9 -0.28668 -5.3 -0.86 s-2.5133 -1.4 -3.34 -2.48 s-1.4067 -2.3933 -1.74 -3.94 s-0.5 -3.3067 -0.5 -5.28 l0 -16.48 z M35.896 11.64 c1.28 -0.16 2.4533 -0.28668 3.52 -0.38 s2.2 -0.14 3.4 -0.14 c1.4667 0 2.9267 0.14 4.38 0.42 s2.7533 0.76668 3.9 1.46 s2.0734 1.6266 2.78 2.8 s1.06 2.6666 1.06 4.48 c0 1.04 -0.14 1.9733 -0.42 2.8 s-0.62668 1.5534 -1.04 2.18 s-0.87332 1.1734 -1.38 1.64 s-1 0.86 -1.48 1.18 l-0.2 0.12 l0.54 0.88 l1.32 2.2 l1.7 2.84 l1.7 2.82 l1.28 2.18 l0.5 0.84 l-7.32 0 l-7.56 -13.16 l0 13.2 l-6.68 0 l0 -28.36 z M42.576 26.560000000000002 l1.4 -0.64 c0.34668 -0.16 0.76 -0.36 1.24 -0.6 s0.94668 -0.55332 1.4 -0.94 s0.84 -0.84668 1.16 -1.38 s0.48 -1.1866 0.48 -1.96 c0 -0.82668 -0.12 -1.5134 -0.36 -2.06 s-0.57332 -0.98668 -1 -1.32 s-0.92668 -0.57332 -1.5 -0.72 s-1.1933 -0.22 -1.86 -0.22 l-0.46 0 l-0.5 0.04 l0 9.8 z M66.75200000000001 11.52 c1.0667 -0.18668 2.1868 -0.31344 3.3601 -0.38012 s2.5466 -0.1 4.12 -0.1 c1.4933 0 2.8866 0.12 4.18 0.36 s2.42 0.65332 3.38 1.24 s1.7133 1.3734 2.26 2.36 s0.82 2.2267 0.82 3.72 c0 1.2267 -0.24668 2.36 -0.74 3.4 s-1.1133 1.8667 -1.86 2.48 c0.56 0.24 1.1067 0.55332 1.64 0.94 s1.0066 0.87336 1.42 1.46 s0.75332 1.2734 1.02 2.06 s0.4 1.6734 0.4 2.66 c0 1.76 -0.32 3.2067 -0.96 4.34 s-1.5133 2.02 -2.62 2.66 s-2.38 1.0867 -3.82 1.34 s-2.96 0.38 -4.56 0.38 c-1.12 0 -2.34 -0.03332 -3.66 -0.1 s-2.78 -0.19336 -4.38 -0.38004 l0 -28.44 z M73.31200000000001 34.88 c0.37332 0.05332 0.75332 0.08668 1.14 0.1 s0.72668 0.02 1.02 0.02 c0.48 0 1 -0.04668 1.56 -0.14 s1.0667 -0.27332 1.52 -0.54 s0.83332 -0.63336 1.14 -1.1 s0.46 -1.0867 0.46 -1.86 c0 -0.72 -0.12 -1.3067 -0.36 -1.76 s-0.57332 -0.80664 -1 -1.06 s-0.94 -0.43332 -1.54 -0.54 s-1.2733 -0.16 -2.02 -0.16 l-1.92 0 l0 7.04 z M74.59200000000001 22.72 c1.2 0.05332 2.1867 -0.16 2.96 -0.64 s1.16 -1.4 1.16 -2.76 c0 -0.66668 -0.12 -1.2067 -0.36 -1.62 s-0.55332 -0.74 -0.94 -0.98 s-0.81336 -0.4 -1.28 -0.48 s-0.92668 -0.12 -1.38 -0.12 l-0.72 0 l-0.72 0.08 l0 6.48 z M103.28800000000003 16.4 l-2.84 0 l2.6 -4.96 l8.8 0 l8.96 28.56 l-6.88 0 l-1.6 -5.72 l-1.56 0.12 l-5.56 0 l-1.36 -0.12 l-1.64 5.72 l-6.44 0 z M110.76800000000003 28.84 l-2.64 -9.52 l-2.8 9.52 l5.44 0 z M131.90400000000002 16.4 l-3.8 0 l2.6 -5 l6.56 0 l9.48 15.68 l0.24 0.68 l0 -16.36 l6.24 0 l0 28.6 l-5.32 0 l-9.6 -15.8 l-0.2 -0.6 l0 16.4 l-6.2 0 l0 -23.6 z"></path></g><g id="SvgjsG2638" featurekey="inlineSymbolFeature-0" transform="matrix(0.8646310209585344,0,0,0.8646310209585344,149.35368979041465,-1.7292620419170688)" fill="#ffffff"><path xmlns="http://www.w3.org/2000/svg" d="M50,8V3a1,1,0,0,0-1-1H44V4h3a1,1,0,0,1,1,1V8Z"></path><path xmlns="http://www.w3.org/2000/svg" d="M16,3V48H42V47a2,2,0,0,1,2-2h2V43a2,2,0,0,1,2-2h1V10H48a2,2,0,0,1-2-2V6H44a2,2,0,0,1-2-2V3Zm2.9,9.611L21.46,11.46,22.611,8.9a1.523,1.523,0,0,1,2.778,0L26.54,11.46,29.1,12.611a1.523,1.523,0,0,1,0,2.778L26.54,16.54,25.389,19.1a1.523,1.523,0,0,1-2.778,0L21.46,16.54,18.9,15.389a1.523,1.523,0,0,1,0-2.778ZM29.1,39.389,26.54,40.54,25.389,43.1a1.523,1.523,0,0,1-2.778,0L21.46,40.54,18.9,39.389a1.523,1.523,0,0,1,0-2.778L21.46,35.46,22.611,32.9a1.523,1.523,0,0,1,2.778,0L26.54,35.46,29.1,36.611a1.523,1.523,0,0,1,0,2.778ZM32,36a1.919,1.919,0,0,1-1.771-1.146l-2.2-4.886-4.886-2.2a1.941,1.941,0,0,1,0-3.542l4.886-2.2,2.2-4.886a1.941,1.941,0,0,1,3.542,0l2.2,4.886,4.886,2.2a1.941,1.941,0,0,1,0,3.542l-4.886,2.2-2.2,4.886A1.919,1.919,0,0,1,32,36Zm13.1,3.389L42.54,40.54,41.389,43.1a1.523,1.523,0,0,1-2.778,0L37.46,40.54,34.9,39.389a1.523,1.523,0,0,1,0-2.778L37.46,35.46,38.611,32.9a1.523,1.523,0,0,1,2.778,0L42.54,35.46,45.1,36.611a1.523,1.523,0,0,1,0,2.778ZM42.54,11.46,45.1,12.611a1.523,1.523,0,0,1,0,2.778L42.54,16.54,41.389,19.1a1.523,1.523,0,0,1-2.778,0L37.46,16.54,34.9,15.389a1.523,1.523,0,0,1,0-2.778L37.46,11.46,38.611,8.9a1.523,1.523,0,0,1,2.778,0Z"></path><path xmlns="http://www.w3.org/2000/svg" d="M48,46a1,1,0,0,1-1,1H44v2h5a1,1,0,0,0,1-1V43l-2,0Z"></path><path xmlns="http://www.w3.org/2000/svg" d="M40.872,12.626,40,10.687l-.872,1.939a1.006,1.006,0,0,1-.5.5L36.687,14l1.939.872a1.006,1.006,0,0,1,.5.5L40,17.313l.872-1.939a1.006,1.006,0,0,1,.5-.5L43.313,14l-1.939-.872A1.006,1.006,0,0,1,40.872,12.626Z"></path><path xmlns="http://www.w3.org/2000/svg" d="M40.872,36.626,40,34.687l-.872,1.939a1.006,1.006,0,0,1-.5.5L36.687,38l1.939.872a1.006,1.006,0,0,1,.5.5L40,41.313l.872-1.939a1.006,1.006,0,0,1,.5-.5L43.313,38l-1.939-.872A1.006,1.006,0,0,1,40.872,36.626Z"></path><path xmlns="http://www.w3.org/2000/svg" d="M24.872,36.626,24,34.687l-.872,1.939a1.006,1.006,0,0,1-.5.5L20.687,38l1.939.872a1.006,1.006,0,0,1,.5.5L24,41.313l.872-1.939a1.006,1.006,0,0,1,.5-.5L27.313,38l-1.939-.872A1.006,1.006,0,0,1,24.872,36.626Z"></path><path xmlns="http://www.w3.org/2000/svg" d="M34.8,23.7a1,1,0,0,1-.5-.5l-2.318-5.156L29.7,23.2a1,1,0,0,1-.5.5L24.085,26,29.2,28.3a1,1,0,0,1,.5.5L32,33.915,34.3,28.8a1,1,0,0,1,.5-.5L39.915,26Z"></path><path xmlns="http://www.w3.org/2000/svg" d="M14,3a4,4,0,0,0-4,4V49.54A5.969,5.969,0,0,1,14,48Z"></path><path xmlns="http://www.w3.org/2000/svg" d="M14,58H46a1,1,0,0,0,1-1V51H44a1.993,1.993,0,0,1-1.722-1H14a4,4,0,0,0,0,8Zm1-5H41a1,1,0,0,1,0,2H15a1,1,0,0,1,0-2Z"></path><path xmlns="http://www.w3.org/2000/svg" d="M23.128,15.374,24,17.313l.872-1.939a1.006,1.006,0,0,1,.5-.5L27.313,14l-1.939-.872a1.006,1.006,0,0,1-.5-.5L24,10.687l-.872,1.939a1.006,1.006,0,0,1-.5.5L20.687,14l1.939.872A1.006,1.006,0,0,1,23.128,15.374Z"></path></g><g id="SvgjsG2639" featurekey="nameRightFeature-0" transform="matrix(0.9149535325617975,0,0,0.9149535325617975,195.01567323831557,0.8990229789487376)" fill="#ffffff"><path d="M19.656000000000002 11.399999999999999 l6.36 0 l0 22.84 l4.6 0 l1 0.12 l0 -2.72 l5.4 -2.52 l0 10.88 l-17.36 0 l0 -28.6 z M47.592000000000006 11.399999999999999 l6.52 0 l0 28.6 l-6.52 0 l0 -28.6 z M65.768 11.52 c1.0667 -0.18668 2.1868 -0.31344 3.3601 -0.38012 s2.5466 -0.1 4.12 -0.1 c1.4933 0 2.8866 0.12 4.18 0.36 s2.42 0.65332 3.38 1.24 s1.7133 1.3734 2.26 2.36 s0.82 2.2267 0.82 3.72 c0 1.2267 -0.24668 2.36 -0.74 3.4 s-1.1133 1.8667 -1.86 2.48 c0.56 0.24 1.1067 0.55332 1.64 0.94 s1.0066 0.87336 1.42 1.46 s0.75332 1.2734 1.02 2.06 s0.4 1.6734 0.4 2.66 c0 1.76 -0.32 3.2067 -0.96 4.34 s-1.5133 2.02 -2.62 2.66 s-2.38 1.0867 -3.82 1.34 s-2.96 0.38 -4.56 0.38 c-1.12 0 -2.34 -0.03332 -3.66 -0.1 s-2.78 -0.19336 -4.38 -0.38004 l0 -28.44 z M72.328 34.88 c0.37332 0.05332 0.75332 0.08668 1.14 0.1 s0.72668 0.02 1.02 0.02 c0.48 0 1 -0.04668 1.56 -0.14 s1.0667 -0.27332 1.52 -0.54 s0.83332 -0.63336 1.14 -1.1 s0.46 -1.0867 0.46 -1.86 c0 -0.72 -0.12 -1.3067 -0.36 -1.76 s-0.57332 -0.80664 -1 -1.06 s-0.94 -0.43332 -1.54 -0.54 s-1.2733 -0.16 -2.02 -0.16 l-1.92 0 l0 7.04 z M73.608 22.72 c1.2 0.05332 2.1867 -0.16 2.96 -0.64 s1.16 -1.4 1.16 -2.76 c0 -0.66668 -0.12 -1.2067 -0.36 -1.62 s-0.55332 -0.74 -0.94 -0.98 s-0.81336 -0.4 -1.28 -0.48 s-0.92668 -0.12 -1.38 -0.12 l-0.72 0 l-0.72 0.08 l0 6.48 z M96.78400000000002 11.64 c1.28 -0.16 2.4533 -0.28668 3.52 -0.38 s2.2 -0.14 3.4 -0.14 c1.4667 0 2.9267 0.14 4.38 0.42 s2.7533 0.76668 3.9 1.46 s2.0734 1.6266 2.78 2.8 s1.06 2.6666 1.06 4.48 c0 1.04 -0.14 1.9733 -0.42 2.8 s-0.62668 1.5534 -1.04 2.18 s-0.87332 1.1734 -1.38 1.64 s-1 0.86 -1.48 1.18 l-0.2 0.12 l0.54 0.88 l1.32 2.2 l1.7 2.84 l1.7 2.82 l1.28 2.18 l0.5 0.84 l-7.32 0 l-7.56 -13.16 l0 13.2 l-6.68 0 l0 -28.36 z M103.46400000000001 26.560000000000002 l1.4 -0.64 c0.34668 -0.16 0.76 -0.36 1.24 -0.6 s0.94668 -0.55332 1.4 -0.94 s0.84 -0.84668 1.16 -1.38 s0.48 -1.1866 0.48 -1.96 c0 -0.82668 -0.12 -1.5134 -0.36 -2.06 s-0.57332 -0.98668 -1 -1.32 s-0.92668 -0.57332 -1.5 -0.72 s-1.1933 -0.22 -1.86 -0.22 l-0.46 0 l-0.5 0.04 l0 9.8 z M133.4 16.4 l-2.84 0 l2.6 -4.96 l8.8 0 l8.96 28.56 l-6.88 0 l-1.6 -5.72 l-1.56 0.12 l-5.56 0 l-1.36 -0.12 l-1.64 5.72 l-6.44 0 z M140.88000000000002 28.84 l-2.64 -9.52 l-2.8 9.52 l5.44 0 z M160.89600000000002 11.64 c1.28 -0.16 2.4533 -0.28668 3.52 -0.38 s2.2 -0.14 3.4 -0.14 c1.4667 0 2.9267 0.14 4.38 0.42 s2.7533 0.76668 3.9 1.46 s2.0734 1.6266 2.78 2.8 s1.06 2.6666 1.06 4.48 c0 1.04 -0.14 1.9733 -0.42 2.8 s-0.62668 1.5534 -1.04 2.18 s-0.87332 1.1734 -1.38 1.64 s-1 0.86 -1.48 1.18 l-0.2 0.12 l0.54 0.88 l1.32 2.2 l1.7 2.84 l1.7 2.82 l1.28 2.18 l0.5 0.84 l-7.32 0 l-7.56 -13.16 l0 13.2 l-6.68 0 l0 -28.36 z M167.57600000000002 26.560000000000002 l1.4 -0.64 c0.34668 -0.16 0.76 -0.36 1.24 -0.6 s0.94668 -0.55332 1.4 -0.94 s0.84 -0.84668 1.16 -1.38 s0.48 -1.1866 0.48 -1.96 c0 -0.82668 -0.12 -1.5134 -0.36 -2.06 s-0.57332 -0.98668 -1 -1.32 s-0.92668 -0.57332 -1.5 -0.72 s-1.1933 -0.22 -1.86 -0.22 l-0.46 0 l-0.5 0.04 l0 9.8 z M197.472 29.68 l-0.38 -0.76 l-1.02 -2.06 l-1.44 -2.94 l-1.64 -3.36 c-1.3067 -2.6667 -2.8 -5.72 -4.48 -9.16 l7.2 0 l5.16 11.76 c0.96 -2.1867 1.8133 -4.1468 2.56 -5.88 c0.32 -0.72 0.63332 -1.4333 0.94 -2.14 s0.58 -1.34 0.82 -1.9 s0.43332 -1.0067 0.58 -1.34 l0.22 -0.5 l7 0 l-8.96 18.32 l0 10.32 l-6.56 0 l0 -10.36 z"></path></g></svg>